<svg width="331" height="182" viewBox="0 0 331 182" fill="none" xmlns="http://www.w3.org/2000/svg">
<rect x="32.5" y="18.5" width="266" height="163" fill="#FAFAFA" stroke="#EBEAEB"/>
<rect x="33" y="19" width="265" height="22" fill="#F6F5F6"/>
<circle cx="44" cy="30" r="3" fill="#E8E8E8"/>
<circle cx="54" cy="30" r="3" fill="#E8E8E8"/>
<circle cx="64" cy="30" r="3" fill="#E8E8E8"/>
<rect x="119" y="27" width="134" height="6" rx="3" fill="#E8E8E8"/>
<rect x="48" y="59" width="73" height="6" rx="3" fill="#E8E8E8"/>
<rect x="48" y="73" width="119" height="6" rx="3" fill="#E8E8E8"/>
<rect x="233" y="59" width="50" height="6" rx="3" fill="#E8E8E8"/>
<rect x="233" y="73" width="50" height="6" rx="3" fill="#E8E8E8"/>
<rect x="48" y="97" width="58" height="67" fill="#E8E8E8"/>
<rect x="114" y="97" width="58" height="67" fill="#E8E8E8"/>
<rect x="195" y="97" width="88" height="67" fill="#E8E8E8"/>
<line x1="195.3" y1="97.6" x2="283.3" y2="163.6" stroke="#D4D4D4"/>
<line y1="-0.5" x2="110" y2="-0.5" transform="matrix(-0.8 0.6 0.6 0.8 283 98)" stroke="#D4D4D4"/>
<g clip-path="url(#clip0_578_5)">
<path d="M170.558 97.4147L176.414 117.759C176.691 119.015 177.794 120.033 179.16 120.222L179.415 120.246C180 120.281 180.584 120.16 181.107 119.895C181.629 119.63 182.071 119.23 182.388 118.737L182.456 118.62L184.556 115.512L190.631 121.587C190.919 121.875 191.261 122.104 191.637 122.26C192.013 122.416 192.417 122.496 192.824 122.496C193.231 122.496 193.635 122.416 194.011 122.26C194.387 122.104 194.729 121.875 195.017 121.587L196.587 120.017C197.169 119.435 197.496 118.647 197.496 117.825L197.484 117.552C197.42 116.827 197.103 116.147 196.587 115.632L190.517 109.56L193.671 107.442C194.76 106.865 195.441 105.525 195.251 104.159C195.158 103.492 194.865 102.87 194.408 102.375C193.952 101.881 193.356 101.537 192.699 101.391L172.413 95.5562C172.156 95.4822 171.883 95.4788 171.623 95.5461C171.364 95.6135 171.127 95.7492 170.938 95.9391C170.748 96.129 170.613 96.3662 170.547 96.626C170.48 96.8858 170.485 97.1586 170.559 97.4162L170.558 97.4147Z" fill="#071709"/>
</g>
<path d="M309 1L302 12.8564" stroke="#B9B9B9" stroke-width="2" stroke-linecap="round"/>
<path d="M312.928 14L306 18" stroke="#B9B9B9" stroke-width="2" stroke-linecap="round"/>
<path d="M295 4L295 12" stroke="#B9B9B9" stroke-width="2" stroke-linecap="round"/>
<defs>
<clipPath id="clip0_578_5">
<rect width="36" height="36" fill="white" transform="translate(166 91)"/>
</clipPath>
</defs>
</svg>
