<svg width="331" height="182" viewBox="0 0 331 182" fill="none" xmlns="http://www.w3.org/2000/svg">
<g clip-path="url(#clip0_578_31)">
<path d="M309 1L302 12.8564" stroke="#B9B9B9" stroke-width="2" stroke-linecap="round"/>
<path d="M312.928 14L306 18" stroke="#B9B9B9" stroke-width="2" stroke-linecap="round"/>
<path d="M295 4L295 12" stroke="#B9B9B9" stroke-width="2" stroke-linecap="round"/>
<rect x="32.5" y="18.5" width="266" height="163" fill="#FAFAFA" stroke="#EBEAEB"/>
<g clip-path="url(#clip1_578_31)">
<path d="M192.79 97.2743C193.606 93.9086 198.394 93.9086 199.21 97.2743C199.333 97.7799 199.573 98.2494 199.911 98.6447C200.25 99.0399 200.676 99.3497 201.157 99.5488C201.638 99.748 202.159 99.8308 202.677 99.7906C203.196 99.7504 203.698 99.5882 204.142 99.3174C207.099 97.5157 210.486 100.901 208.684 103.86C208.414 104.304 208.252 104.805 208.212 105.324C208.172 105.842 208.255 106.363 208.454 106.843C208.652 107.323 208.962 107.75 209.357 108.088C209.752 108.426 210.221 108.667 210.726 108.79C214.091 109.606 214.091 114.394 210.726 115.21C210.22 115.333 209.751 115.573 209.355 115.911C208.96 116.25 208.65 116.676 208.451 117.157C208.252 117.638 208.169 118.159 208.209 118.677C208.25 119.196 208.412 119.698 208.683 120.142C210.484 123.099 207.099 126.486 204.14 124.684C203.696 124.414 203.195 124.252 202.676 124.212C202.158 124.172 201.637 124.255 201.157 124.454C200.677 124.652 200.25 124.962 199.912 125.357C199.574 125.752 199.333 126.221 199.21 126.726C198.394 130.091 193.606 130.091 192.79 126.726C192.667 126.22 192.427 125.751 192.089 125.355C191.75 124.96 191.324 124.65 190.843 124.451C190.362 124.252 189.841 124.169 189.323 124.209C188.804 124.25 188.302 124.412 187.858 124.683C184.901 126.484 181.514 123.099 183.315 120.14C183.586 119.696 183.748 119.195 183.788 118.676C183.828 118.158 183.745 117.637 183.546 117.157C183.348 116.677 183.038 116.25 182.643 115.912C182.248 115.574 181.779 115.333 181.274 115.21C177.909 114.394 177.909 109.606 181.274 108.79C181.78 108.667 182.249 108.427 182.645 108.089C183.04 107.75 183.35 107.324 183.549 106.843C183.748 106.362 183.831 105.841 183.791 105.323C183.75 104.804 183.588 104.302 183.317 103.858C181.516 100.901 184.901 97.5138 187.86 99.3155C189.777 100.481 192.261 99.4497 192.79 97.2743Z" stroke="#767676" stroke-width="2" stroke-linecap="round" stroke-linejoin="round"/>
<path d="M190.25 112C190.25 113.525 190.856 114.988 191.934 116.066C193.012 117.144 194.475 117.75 196 117.75C197.525 117.75 198.988 117.144 200.066 116.066C201.144 114.988 201.75 113.525 201.75 112C201.75 110.475 201.144 109.012 200.066 107.934C198.988 106.856 197.525 106.25 196 106.25C194.475 106.25 193.012 106.856 191.934 107.934C190.856 109.012 190.25 110.475 190.25 112Z" stroke="#767676" stroke-width="2" stroke-linecap="round" stroke-linejoin="round"/>
</g>
<g clip-path="url(#clip2_578_31)">
<path d="M225.336 77.5761C225.887 75.308 229.113 75.308 229.664 77.5761C229.746 77.9169 229.908 78.2333 230.136 78.4997C230.364 78.766 230.652 78.9748 230.975 79.109C231.299 79.2432 231.65 79.299 232 79.2719C232.349 79.2448 232.688 79.1356 232.987 78.953C234.98 77.7389 237.262 80.02 236.048 82.0143C235.866 82.3135 235.757 82.6515 235.73 83.0008C235.703 83.3501 235.759 83.7009 235.893 84.0246C236.027 84.3483 236.235 84.6358 236.501 84.8638C236.767 85.0917 237.083 85.2537 237.424 85.3365C239.692 85.8867 239.692 89.1133 237.424 89.6635C237.083 89.7461 236.767 89.908 236.5 90.1359C236.234 90.3639 236.025 90.6515 235.891 90.9754C235.757 91.2993 235.701 91.6503 235.728 91.9999C235.755 92.3494 235.864 92.6877 236.047 92.987C237.261 94.98 234.98 97.2624 232.986 96.0482C232.686 95.866 232.348 95.7569 231.999 95.7299C231.65 95.7028 231.299 95.7586 230.975 95.8926C230.652 96.0267 230.364 96.2352 230.136 96.5013C229.908 96.7673 229.746 97.0834 229.664 97.4239C229.113 99.692 225.887 99.692 225.336 97.4239C225.254 97.0831 225.092 96.7667 224.864 96.5003C224.636 96.234 224.348 96.0252 224.025 95.891C223.701 95.7568 223.35 95.701 223 95.7281C222.651 95.7552 222.312 95.8644 222.013 96.047C220.02 97.2611 217.738 94.98 218.952 92.9857C219.134 92.6865 219.243 92.3485 219.27 91.9992C219.297 91.6499 219.241 91.2991 219.107 90.9754C218.973 90.6517 218.765 90.3642 218.499 90.1362C218.233 89.9083 217.917 89.7463 217.576 89.6635C215.308 89.1133 215.308 85.8867 217.576 85.3365C217.917 85.2539 218.233 85.092 218.5 84.8641C218.766 84.6361 218.975 84.3485 219.109 84.0246C219.243 83.7007 219.299 83.3497 219.272 83.0001C219.245 82.6506 219.136 82.3123 218.953 82.013C217.739 80.02 220.02 77.7376 222.014 78.9517C223.306 79.7371 224.98 79.0422 225.336 77.5761Z" stroke="#767676" stroke-width="2" stroke-linecap="round" stroke-linejoin="round"/>
<path d="M223.625 87.5C223.625 88.5277 224.033 89.5133 224.76 90.24C225.487 90.9667 226.472 91.375 227.5 91.375C228.528 91.375 229.513 90.9667 230.24 90.24C230.967 89.5133 231.375 88.5277 231.375 87.5C231.375 86.4723 230.967 85.4867 230.24 84.76C229.513 84.0333 228.528 83.625 227.5 83.625C226.472 83.625 225.487 84.0333 224.76 84.76C224.033 85.4867 223.625 86.4723 223.625 87.5Z" stroke="#767676" stroke-width="2" stroke-linecap="round" stroke-linejoin="round"/>
</g>
<rect x="33" y="19" width="265" height="22" fill="#F6F5F6"/>
<circle cx="44" cy="30" r="3" fill="#E8E8E8"/>
<circle cx="54" cy="30" r="3" fill="#E8E8E8"/>
<circle cx="64" cy="30" r="3" fill="#E8E8E8"/>
<rect x="119" y="27" width="134" height="6" rx="3" fill="#E8E8E8"/>
<rect x="48" y="57" width="80" height="109" fill="#E8E8E8"/>
<rect x="56" y="63" width="64" height="35" fill="#FAFAFA"/>
<g clip-path="url(#clip3_578_31)">
<path d="M82.3333 73L75.25 81L82.3333 89" stroke="#767676" stroke-width="2" stroke-linecap="round" stroke-linejoin="round"/>
<path d="M93.668 73L100.751 81L93.668 89" stroke="#767676" stroke-width="2" stroke-linecap="round" stroke-linejoin="round"/>
</g>
<rect x="56" y="107" width="47" height="3" rx="1.5" fill="white"/>
<rect x="56" y="134" width="47" height="3" rx="1.5" fill="white"/>
<rect x="56" y="116" width="26" height="3" rx="1.5" fill="white"/>
<rect x="56" y="143" width="26" height="3" rx="1.5" fill="white"/>
<rect x="56" y="125" width="20" height="3" rx="1.5" fill="white"/>
<rect x="56" y="152" width="20" height="3" rx="1.5" fill="white"/>
<rect x="109" y="107" width="11" height="3" rx="1.5" fill="white"/>
<rect x="109" y="134" width="11" height="3" rx="1.5" fill="white"/>
<rect x="85" y="116" width="35" height="3" rx="1.5" fill="white"/>
<rect x="85" y="143" width="35" height="3" rx="1.5" fill="white"/>
<rect x="78" y="125" width="18" height="3" rx="1.5" fill="white"/>
<rect x="78" y="152" width="18" height="3" rx="1.5" fill="white"/>
<rect x="99" y="125" width="21" height="3" rx="1.5" fill="white"/>
<rect x="99" y="152" width="21" height="3" rx="1.5" fill="white"/>
<g clip-path="url(#clip4_578_31)">
<path d="M241.369 153.054C240.629 152.836 239.962 152.424 239.436 151.86C238.91 151.296 238.545 150.601 238.38 149.848C238.215 149.166 237.891 148.533 237.435 148.001C236.979 147.468 236.404 147.05 235.756 146.782C235.108 146.514 234.406 146.402 233.707 146.456C233.008 146.51 232.332 146.729 231.733 147.094C227.747 149.522 223.182 144.96 225.611 140.971C225.975 140.373 226.193 139.697 226.247 138.998C226.301 138.3 226.19 137.598 225.922 136.951C225.654 136.303 225.237 135.728 224.704 135.272C224.172 134.817 223.54 134.493 222.859 134.327C218.323 133.227 218.323 126.773 222.859 125.673C223.541 125.508 224.174 125.184 224.706 124.728C225.239 124.272 225.657 123.697 225.925 123.049C226.193 122.401 226.305 121.699 226.251 121C226.197 120.301 225.978 119.625 225.613 119.026C223.185 115.04 227.747 110.475 231.736 112.904C234.319 114.474 237.667 113.084 238.38 110.152C239.48 105.616 245.934 105.616 247.034 110.152C247.199 110.834 247.523 111.467 247.979 111.999C248.435 112.532 249.01 112.95 249.658 113.218C250.306 113.486 251.008 113.598 251.707 113.544C252.406 113.49 253.082 113.271 253.681 112.906C257.667 110.478 262.232 115.04 259.804 119.029C259.439 119.627 259.221 120.303 259.167 121.002C259.113 121.7 259.224 122.402 259.492 123.049C259.76 123.697 260.177 124.272 260.71 124.728C261.242 125.183 261.874 125.507 262.555 125.673C265.944 126.494 266.802 130.307 265.125 132.64" stroke="#767676" stroke-width="2" stroke-linecap="round" stroke-linejoin="round"/>
<path d="M234.957 130C234.957 132.055 235.774 134.027 237.227 135.48C238.68 136.933 240.652 137.75 242.707 137.75C244.762 137.75 246.734 136.933 248.187 135.48C249.641 134.027 250.457 132.055 250.457 130C250.457 127.945 249.641 125.973 248.187 124.52C246.734 123.067 244.762 122.25 242.707 122.25C240.652 122.25 238.68 123.067 237.227 124.52C235.774 125.973 234.957 127.945 234.957 130Z" stroke="#767676" stroke-width="2" stroke-linecap="round" stroke-linejoin="round"/>
<path d="M263.375 153.249L268.542 148.083L263.375 142.916" stroke="#767676" stroke-width="2" stroke-linecap="round" stroke-linejoin="round"/>
<path d="M255.624 142.916L250.457 148.083L255.624 153.249" stroke="#767676" stroke-width="2" stroke-linecap="round" stroke-linejoin="round"/>
</g>
</g>
<defs>
<clipPath id="clip0_578_31">
<rect width="331" height="182" fill="white"/>
</clipPath>
<clipPath id="clip1_578_31">
<rect width="46" height="46" fill="white" transform="translate(173 89)"/>
</clipPath>
<clipPath id="clip2_578_31">
<rect width="31" height="31" fill="white" transform="translate(212 72)"/>
</clipPath>
<clipPath id="clip3_578_31">
<rect width="34" height="24" fill="white" transform="translate(71 69)"/>
</clipPath>
<clipPath id="clip4_578_31">
<rect width="62" height="62" fill="white" transform="translate(213 99)"/>
</clipPath>
</defs>
</svg>
