<svg width="331" height="182" viewBox="0 0 331 182" fill="none" xmlns="http://www.w3.org/2000/svg">
<g clip-path="url(#clip0_578_53)">
<path d="M309 1L302 12.8564" stroke="#B9B9B9" stroke-width="2" stroke-linecap="round"/>
<path d="M312.928 14L306 18" stroke="#B9B9B9" stroke-width="2" stroke-linecap="round"/>
<path d="M295 4L295 12" stroke="#B9B9B9" stroke-width="2" stroke-linecap="round"/>
<rect x="32.5" y="18.5" width="266" height="163" fill="#FAFAFA" stroke="#EBEAEB"/>
<rect x="33" y="19" width="265" height="22" fill="#F6F5F6"/>
<circle cx="44" cy="30" r="3" fill="#E8E8E8"/>
<circle cx="54" cy="30" r="3" fill="#E8E8E8"/>
<circle cx="64" cy="30" r="3" fill="#E8E8E8"/>
<rect x="119" y="27" width="134" height="6" rx="3" fill="#E8E8E8"/>
<rect x="48" y="59" width="73" height="6" rx="3" fill="#E8E8E8"/>
<rect x="201" y="125" width="51" height="6" rx="3" fill="#E8E8E8"/>
<rect x="48" y="73" width="119" height="6" rx="3" fill="#E8E8E8"/>
<rect x="201" y="139" width="83" height="6" rx="3" fill="#E8E8E8"/>
<rect x="48" y="97" width="58" height="67" fill="#E8E8E8"/>
<path d="M136.349 97.7518C144.629 91.2315 154.861 87.686 165.399 87.686C175.937 87.686 186.169 91.2315 194.449 97.7518C196.002 91.9688 196.055 85.8852 194.603 80.076C193.15 74.2668 190.241 68.9239 186.149 64.5523C190.666 55.1328 192.288 44.5854 190.811 34.2439C189.333 23.9024 184.822 14.2312 177.849 6.45317C174.547 3.15128 170.069 1.29629 165.399 1.29629C160.729 1.29629 156.251 3.15128 152.949 6.45317C145.975 14.2312 141.465 23.9024 139.987 34.2439C138.51 44.5854 140.132 55.1328 144.649 64.5523C140.557 68.9239 137.648 74.2668 136.195 80.076C134.743 85.8852 134.796 91.9688 136.349 97.7518Z" fill="#D0D0D0" stroke="#9B9B9B" stroke-linecap="round" stroke-linejoin="round"/>
<path d="M152.948 89.4509C151.067 96.2084 151.247 103.374 153.465 110.028C155.683 116.682 159.838 122.523 165.397 126.8C170.956 122.523 175.111 116.682 177.33 110.028C179.548 103.374 179.728 96.2084 177.847 89.4509" fill="#D0D0D0"/>
<path d="M152.948 89.4509C151.067 96.2084 151.247 103.374 153.465 110.028C155.683 116.682 159.838 122.523 165.397 126.8C170.956 122.523 175.111 116.682 177.33 110.028C179.548 103.374 179.728 96.2084 177.847 89.4509" stroke="#9B9B9B" stroke-linecap="round" stroke-linejoin="round"/>
<path d="M161.248 39.6519C162.348 40.7525 163.841 41.3708 165.398 41.3708C166.954 41.3708 168.447 40.7525 169.547 39.6519C170.648 38.5513 171.266 37.0585 171.266 35.502C171.266 33.9454 170.648 32.4526 169.547 31.352C168.447 30.2514 166.954 29.6331 165.398 29.6331C163.841 29.6331 162.348 30.2514 161.248 31.352C160.147 32.4526 159.529 33.9454 159.529 35.502C159.529 37.0585 160.147 38.5513 161.248 39.6519Z" fill="#FAFAFA" stroke="#DADADA" stroke-linecap="round" stroke-linejoin="round"/>
</g>
<defs>
<clipPath id="clip0_578_53">
<rect width="331" height="182" fill="white"/>
</clipPath>
</defs>
</svg>
