<svg width="126" height="42" viewBox="0 0 126 42" fill="none" xmlns="http://www.w3.org/2000/svg">
<g clip-path="url(#clip0_411_155)">
<path fill-rule="evenodd" clip-rule="evenodd" d="M22.5926 0H30.7462C40.1363 0 46.1469 5.45481 48.7767 12.4369C49.7951 15.1409 50.3043 18.0717 50.3043 20.9997C50.3043 23.9275 49.7949 26.8585 48.7767 29.5627C46.1469 36.5447 40.1363 42 30.7462 42H21.0518C25.4528 40.686 28.9864 36.8028 29.8 32.5489C29.9204 31.9197 29.9732 31.2829 29.9506 30.6463H30.047C34.3344 30.6463 37.0784 28.1573 38.2782 24.9723C38.7486 23.7225 38.9844 22.3625 38.9844 20.9997C38.9844 19.6375 38.7486 18.2775 38.2782 17.0279C37.0784 13.8423 34.3346 11.3535 30.047 11.3535H22.1305V0L22.5926 0Z" fill="url(#paint0_linear_411_155)"/>
<path fill-rule="evenodd" clip-rule="evenodd" d="M22.1322 11.3554H11.2529V22.2347H22.1322V11.3554Z" fill="url(#paint1_linear_411_155)"/>
<path fill-rule="evenodd" clip-rule="evenodd" d="M11.2588 3.8147e-06H2.59839V8.66064H11.2588V3.8147e-06Z" fill="url(#paint2_linear_411_155)"/>
<path fill-rule="evenodd" clip-rule="evenodd" d="M5.41622 19.5439H0V24.9602H5.41622V19.5439Z" fill="url(#paint3_linear_411_155)"/>
<path d="M60.8857 17.3904C60.7795 17.3904 60.6919 17.3558 60.6229 17.2868C60.5539 17.2178 60.5195 17.1302 60.5195 17.0242V7.66037H57.4619C57.3557 7.66037 57.2681 7.62596 57.1991 7.55698C57.1301 7.48797 57.0957 7.40037 57.0957 7.29417V6.62536C57.0957 6.50855 57.1301 6.41554 57.1991 6.34656C57.2681 6.27755 57.3557 6.24317 57.4619 6.24317H65.1375C65.2543 6.24317 65.3474 6.27758 65.4163 6.34656C65.4853 6.41557 65.5197 6.50855 65.5197 6.62536V7.29417C65.5197 7.40037 65.4853 7.48797 65.4163 7.55698C65.3473 7.62599 65.2543 7.66037 65.1375 7.66037H62.0959V17.0242C62.0959 17.1302 62.0615 17.2178 61.9925 17.2868C61.9235 17.3558 61.8306 17.3904 61.7137 17.3904H60.8857H60.8857ZM67.1599 17.3904C67.0538 17.3904 66.9662 17.3558 66.8971 17.2868C66.8281 17.2178 66.7937 17.1302 66.7937 17.0242V6.45018C66.7937 6.34399 66.8282 6.25639 66.8971 6.18737C66.9662 6.11836 67.0538 6.08398 67.1599 6.08398H67.9561C68.0729 6.08398 68.1632 6.11839 68.2269 6.18737C68.2905 6.25639 68.3225 6.34399 68.3225 6.45018V10.1606C68.6091 9.79961 68.9594 9.5078 69.3735 9.28481C69.7875 9.06181 70.3129 8.95041 70.95 8.95041C71.6402 8.95041 72.2266 9.10162 72.7098 9.40421C73.1928 9.7068 73.559 10.1262 73.8086 10.6622C74.0579 11.1984 74.1828 11.822 74.1828 12.5334V17.0242C74.1828 17.1302 74.151 17.2178 74.0872 17.2868C74.0235 17.3558 73.9331 17.3904 73.8164 17.3904H73.0202C72.914 17.3904 72.8266 17.3558 72.7576 17.2868C72.6885 17.2178 72.654 17.1302 72.654 17.0242V12.613C72.654 11.8698 72.4736 11.2886 72.1126 10.8692C71.7516 10.45 71.2208 10.2402 70.5202 10.2402C69.8618 10.2402 69.331 10.45 68.9276 10.8692C68.5241 11.2886 68.3225 11.8698 68.3225 12.613V17.0242C68.3225 17.1302 68.2905 17.2178 68.2269 17.2868C68.1631 17.3558 68.0729 17.3904 67.9561 17.3904H67.1599ZM79.7882 17.5496C78.684 17.5496 77.8082 17.2126 77.1606 16.5384C76.513 15.8642 76.1574 14.9434 76.0936 13.7756C76.083 13.6376 76.0778 13.4596 76.0778 13.242C76.0778 13.0244 76.083 12.8466 76.0936 12.7086C76.136 11.9548 76.3112 11.294 76.6192 10.726C76.927 10.158 77.349 9.71999 77.8852 9.41219C78.4212 9.10419 79.0502 8.95038 79.7722 8.95038C80.579 8.95038 81.2558 9.12018 81.8026 9.45998C82.3494 9.79958 82.766 10.2828 83.0526 10.909C83.3394 11.5354 83.4826 12.268 83.4826 13.1066V13.3774C83.4826 13.4942 83.4482 13.5844 83.3792 13.6482C83.3102 13.7118 83.2226 13.7436 83.1164 13.7436H77.6064C77.6064 13.7542 77.6064 13.7756 77.6064 13.8074C77.6064 13.8392 77.6064 13.8658 77.6064 13.887C77.6276 14.3222 77.7232 14.7284 77.8932 15.1052C78.063 15.4822 78.3098 15.7874 78.6336 16.0208C78.9574 16.2544 79.337 16.3712 79.7722 16.3712C80.1544 16.3712 80.4728 16.3128 80.7276 16.196C80.9824 16.0792 81.1896 15.9492 81.3488 15.806C81.508 15.6626 81.6142 15.5484 81.6672 15.4636C81.7628 15.3362 81.8372 15.2592 81.8902 15.2326C81.9432 15.206 82.0282 15.1928 82.145 15.1928H82.9252C83.0209 15.1928 83.1033 15.222 83.1722 15.2804C83.2413 15.3388 83.2705 15.421 83.2596 15.5272C83.249 15.6864 83.1642 15.8802 83.005 16.1084C82.8457 16.3368 82.6201 16.5624 82.3282 16.7852C82.0362 17.0082 81.6752 17.1914 81.2452 17.3346C80.8152 17.478 80.3296 17.5496 79.7882 17.5496L79.7882 17.5496ZM77.6064 12.6448H81.9698V12.597C81.9698 12.1194 81.8822 11.6948 81.707 11.3232C81.5318 10.9516 81.2798 10.657 80.9506 10.4394C80.6216 10.2216 80.2288 10.1128 79.7722 10.1128C79.3158 10.1128 78.9256 10.2216 78.6018 10.4394C78.278 10.657 78.0312 10.9516 77.8612 11.3232C77.6914 11.6948 77.6064 12.1194 77.6064 12.597V12.6448ZM58.2103 32.4109C58.0935 32.4109 57.9981 32.3711 57.9237 32.2915C57.8493 32.2119 57.8123 32.1189 57.8123 32.0127V21.6616C57.8123 21.545 57.8493 21.4494 57.9237 21.375C57.9981 21.3008 58.0935 21.2636 58.2103 21.2636H62.3507C63.3912 21.2636 64.2777 21.4308 65.0102 21.7652C65.7427 22.0996 66.3054 22.588 66.6982 23.2302C67.091 23.8726 67.3034 24.6662 67.3352 25.611C67.3458 26.0782 67.3512 26.4868 67.3512 26.8372C67.3512 27.1876 67.3458 27.591 67.3352 28.0474C67.2928 29.0348 67.083 29.8523 66.7062 30.4999C66.3294 31.1475 65.7826 31.6279 65.066 31.9411C64.3494 32.2543 63.4708 32.4109 62.4304 32.4109H58.2103H58.2103ZM60.6787 30.1176H62.3507C62.8073 30.1176 63.1867 30.046 63.4893 29.9027C63.7919 29.7595 64.0201 29.5339 64.1741 29.2259C64.3281 28.9181 64.4103 28.5147 64.4209 28.0156C64.4421 27.7079 64.4555 27.4318 64.4607 27.1876C64.4661 26.9435 64.4661 26.6992 64.4607 26.455C64.4555 26.2109 64.4421 25.9402 64.4209 25.6429C64.3997 24.921 64.2113 24.3929 63.8557 24.0585C63.4999 23.7241 62.9717 23.5569 62.2711 23.5569H60.6787V30.1177V30.1176ZM69.4372 32.4109C69.3203 32.4109 69.2249 32.3711 69.1506 32.2915C69.0764 32.2119 69.0392 32.1189 69.0392 32.0127V24.5282C69.0392 24.4114 69.0764 24.3158 69.1506 24.2414C69.2249 24.1672 69.3203 24.13 69.4372 24.13H71.3164C71.4332 24.13 71.5286 24.1672 71.603 24.2414C71.6774 24.3158 71.7144 24.4114 71.7144 24.5282V32.0127C71.7144 32.1189 71.6774 32.2119 71.603 32.2915C71.5286 32.3711 71.4332 32.4109 71.3164 32.4109H69.4372ZM69.4214 22.9356C69.3046 22.9356 69.209 22.8986 69.1346 22.8242C69.0604 22.7498 69.0232 22.6544 69.0232 22.5376V21.1044C69.0232 20.9982 69.0604 20.9052 69.1346 20.8256C69.209 20.746 69.3046 20.7062 69.4214 20.7062H71.3322C71.4384 20.7062 71.5314 20.746 71.611 20.8256C71.6906 20.9052 71.7304 20.9982 71.7304 21.1044V22.5376C71.7304 22.6544 71.6906 22.7498 71.611 22.8242C71.5314 22.8986 71.4384 22.9356 71.3322 22.9356H69.4214ZM77.6544 35.9143C76.8368 35.9143 76.16 35.8081 75.624 35.5959C75.0878 35.3835 74.6632 35.1287 74.35 34.8315C74.0368 34.5341 73.8112 34.2395 73.6732 33.9477C73.5352 33.6557 73.4608 33.4247 73.4502 33.2549C73.4396 33.1381 73.4768 33.0399 73.5618 32.9603C73.6466 32.8807 73.7474 32.8409 73.8642 32.8409H75.8866C75.9928 32.8409 76.0778 32.8674 76.1414 32.9204C76.2052 32.9734 76.2582 33.0584 76.3008 33.1752C76.3644 33.292 76.4388 33.4115 76.5236 33.5334C76.6086 33.6556 76.7334 33.759 76.898 33.844C77.0624 33.929 77.288 33.9714 77.5748 33.9714C77.8932 33.9714 78.1586 33.9211 78.371 33.8202C78.5832 33.7192 78.7426 33.5548 78.8486 33.3264C78.9548 33.0982 79.008 32.793 79.008 32.4108V31.3438C78.7638 31.6092 78.4506 31.8242 78.0684 31.9888C77.6861 32.1534 77.2244 32.2356 76.683 32.2356C76.1414 32.2356 75.6638 32.156 75.2497 31.9968C74.8356 31.8376 74.4906 31.5986 74.2145 31.2802C73.9385 30.9616 73.7235 30.5742 73.5695 30.1176C73.4157 29.6612 73.3228 29.1355 73.2909 28.5411C73.2803 28.265 73.2803 27.9838 73.2909 27.6972C73.3228 27.1344 73.413 26.6222 73.5617 26.1603C73.7103 25.6985 73.9253 25.3057 74.2065 24.9819C74.4879 24.6581 74.8355 24.4085 75.2497 24.2335C75.6637 24.0583 76.1413 23.9707 76.6829 23.9707C77.2561 23.9707 77.7471 24.0795 78.1559 24.2971C78.5645 24.5147 78.9017 24.7881 79.1671 25.1173V24.5281C79.1671 24.4219 79.2044 24.3289 79.2785 24.2493C79.3529 24.1697 79.4483 24.1299 79.5651 24.1299H81.3966C81.5134 24.1299 81.6116 24.1697 81.6912 24.2493C81.7708 24.3289 81.8106 24.4219 81.8106 24.5281V32.1878C81.8106 32.9948 81.6488 33.6742 81.325 34.2262C81.0012 34.7782 80.5288 35.1976 79.9076 35.4842C79.2866 35.7708 78.5354 35.9142 77.6544 35.9142L77.6544 35.9143ZM77.5428 30.1655C77.8826 30.1655 78.1586 30.0913 78.371 29.9425C78.5832 29.7939 78.7398 29.6029 78.8408 29.3693C78.9416 29.1357 78.9972 28.8863 79.008 28.6209C79.0186 28.5041 79.0238 28.3395 79.0238 28.127C79.0238 27.9148 79.0186 27.7556 79.008 27.6495C78.9972 27.3735 78.9416 27.1187 78.8408 26.8851C78.7398 26.6514 78.5832 26.4631 78.371 26.3197C78.1586 26.1765 77.8826 26.1047 77.5428 26.1047C77.1926 26.1047 76.9138 26.1791 76.7068 26.3277C76.4998 26.4763 76.3512 26.6781 76.261 26.9329C76.1706 27.1877 76.115 27.4689 76.0938 27.7769C76.083 28.0105 76.083 28.2493 76.0938 28.4935C76.115 28.8013 76.1706 29.0827 76.261 29.3375C76.3512 29.5923 76.4998 29.7939 76.7068 29.9425C76.9138 30.0913 77.1926 30.1655 77.5428 30.1655ZM84.0878 32.4109C83.971 32.4109 83.8756 32.3711 83.8012 32.2915C83.727 32.2119 83.6898 32.1189 83.6898 32.0127V24.5282C83.6898 24.4114 83.727 24.3158 83.8012 24.2414C83.8756 24.1672 83.971 24.13 84.0878 24.13H85.967C86.0838 24.13 86.1792 24.1672 86.2536 24.2414C86.328 24.3158 86.365 24.4114 86.365 24.5282V32.0127C86.365 32.1189 86.328 32.2119 86.2536 32.2915C86.1792 32.3711 86.0838 32.4109 85.967 32.4109H84.0878ZM84.072 22.9356C83.9552 22.9356 83.8596 22.8986 83.7852 22.8242C83.711 22.7498 83.6738 22.6544 83.6738 22.5376V21.1044C83.6738 20.9982 83.711 20.9052 83.7852 20.8256C83.8596 20.746 83.9552 20.7062 84.072 20.7062H85.9828C86.089 20.7062 86.182 20.746 86.2616 20.8256C86.3412 20.9052 86.381 20.9982 86.381 21.1044V22.5376C86.381 22.6544 86.3412 22.7498 86.2616 22.8242C86.182 22.8986 86.089 22.9356 85.9828 22.9356H84.072ZM92.5757 32.5701C91.5141 32.5701 90.6329 32.4189 89.9323 32.1163C89.2315 31.8137 88.7007 31.4182 88.3397 30.9299C87.9789 30.4415 87.7877 29.9213 87.7665 29.3693C87.7665 29.2843 87.8011 29.2075 87.8701 29.1383C87.9391 29.0693 88.0213 29.0349 88.1168 29.0349H90.1233C90.2719 29.0349 90.3861 29.0615 90.4657 29.1145C90.5453 29.1675 90.6171 29.2365 90.6807 29.3215C90.7657 29.4807 90.8851 29.6347 91.039 29.7833C91.1929 29.9319 91.3972 30.0515 91.6521 30.1417C91.9069 30.2319 92.2147 30.2771 92.5757 30.2771C93.1915 30.2771 93.6559 30.1815 93.9691 29.9903C94.2823 29.7993 94.4389 29.5391 94.4389 29.2101C94.4389 28.9659 94.3539 28.7694 94.1841 28.6209C94.0143 28.4722 93.7409 28.3369 93.3641 28.2146C92.9871 28.0926 92.4855 27.9679 91.8591 27.8404C91.0523 27.6706 90.3649 27.4502 89.7969 27.1796C89.2289 26.9088 88.7963 26.5532 88.4991 26.1126C88.2016 25.672 88.0531 25.1226 88.0531 24.4644C88.0531 23.8168 88.2363 23.2382 88.6025 22.7286C88.9689 22.219 89.4811 21.821 90.1393 21.5342C90.7975 21.2476 91.5779 21.1044 92.4801 21.1044C93.2127 21.1044 93.8577 21.1998 94.4151 21.391C94.9723 21.582 95.4421 21.8368 95.8243 22.1554C96.2065 22.4738 96.4959 22.811 96.6923 23.1666C96.8887 23.5222 96.9922 23.87 97.0027 24.2096C97.0027 24.2946 96.9735 24.3716 96.9151 24.4406C96.8569 24.5096 96.7745 24.544 96.6683 24.544H94.5663C94.4495 24.544 94.3488 24.5228 94.2637 24.4804C94.179 24.4378 94.1046 24.3688 94.041 24.2734C93.9771 24.0398 93.8099 23.8354 93.5392 23.6602C93.2685 23.485 92.9156 23.3974 92.4802 23.3974C92.0131 23.3974 91.6495 23.4798 91.3893 23.6444C91.1293 23.8088 90.9994 24.061 90.9994 24.4008C90.9994 24.613 91.071 24.7988 91.2142 24.958C91.3576 25.1174 91.5964 25.2554 91.9308 25.3722C92.2654 25.489 92.7244 25.611 93.3084 25.7384C94.2744 25.9188 95.0548 26.1444 95.6492 26.4152C96.2438 26.686 96.6818 27.0362 96.963 27.4662C97.2444 27.8962 97.385 28.435 97.385 29.0826C97.385 29.8044 97.178 30.4256 96.764 30.9458C96.35 31.466 95.7846 31.8668 95.068 32.148C94.3514 32.4294 93.5208 32.57 92.5758 32.57L92.5757 32.5701ZM102.624 32.5701C101.372 32.5701 100.374 32.2305 99.6303 31.5509C98.8871 30.8715 98.4997 29.8628 98.4679 28.5252C98.4679 28.4509 98.4679 28.3554 98.4679 28.2386C98.4679 28.1218 98.4679 28.0316 98.4679 27.9679C98.4997 27.1292 98.6881 26.4099 99.0331 25.8101C99.3781 25.2103 99.8559 24.7539 100.466 24.4406C101.077 24.1274 101.791 23.9708 102.608 23.9708C103.543 23.9708 104.315 24.1566 104.925 24.5282C105.536 24.8996 105.995 25.404 106.303 26.041C106.611 26.678 106.765 27.4052 106.765 28.2227V28.6049C106.765 28.7217 106.727 28.8173 106.653 28.8915C106.579 28.9659 106.483 29.0031 106.367 29.0031H101.271C101.271 29.0137 101.271 29.0295 101.271 29.0509C101.271 29.0721 101.271 29.0933 101.271 29.1145C101.281 29.4223 101.337 29.7037 101.438 29.9585C101.539 30.2133 101.687 30.4151 101.884 30.5637C102.08 30.7123 102.322 30.7865 102.608 30.7865C102.821 30.7865 102.998 30.7521 103.142 30.6831C103.285 30.6141 103.405 30.5345 103.5 30.4443C103.596 30.3539 103.67 30.2771 103.723 30.2133C103.819 30.0965 103.896 30.0249 103.954 29.9983C104.012 29.9717 104.105 29.9585 104.233 29.9585H106.207C106.313 29.9585 106.401 29.9903 106.47 30.0541C106.539 30.1177 106.568 30.2027 106.558 30.3089C106.547 30.4893 106.457 30.7069 106.287 30.9617C106.117 31.2165 105.87 31.4687 105.546 31.7181C105.223 31.9677 104.817 32.1721 104.328 32.3312C103.84 32.4904 103.272 32.5701 102.624 32.5701H102.624ZM101.271 27.4264H103.962V27.3946C103.962 27.0442 103.911 26.7442 103.811 26.4948C103.71 26.2454 103.556 26.0516 103.349 25.9136C103.142 25.7756 102.895 25.7066 102.608 25.7066C102.332 25.7066 102.093 25.7756 101.892 25.9136C101.69 26.0516 101.536 26.2454 101.43 26.4948C101.324 26.7442 101.271 27.0442 101.271 27.3946V27.4264ZM112.083 32.5701C110.831 32.5701 109.833 32.2305 109.09 31.5509C108.346 30.8715 107.959 29.8628 107.927 28.5252C107.927 28.4509 107.927 28.3554 107.927 28.2386C107.927 28.1218 107.927 28.0316 107.927 27.9679C107.959 27.1292 108.147 26.4099 108.492 25.8101C108.837 25.2103 109.315 24.7539 109.926 24.4406C110.536 24.1274 111.25 23.9708 112.068 23.9708C113.002 23.9708 113.774 24.1566 114.385 24.5282C114.995 24.8996 115.454 25.404 115.762 26.041C116.07 26.678 116.224 27.4052 116.224 28.2227V28.6049C116.224 28.7217 116.187 28.8173 116.112 28.8915C116.038 28.9659 115.943 29.0031 115.826 29.0031H110.73C110.73 29.0137 110.73 29.0295 110.73 29.0509C110.73 29.0721 110.73 29.0933 110.73 29.1145C110.74 29.4223 110.796 29.7037 110.897 29.9585C110.998 30.2133 111.147 30.4151 111.343 30.5637C111.539 30.7123 111.781 30.7865 112.068 30.7865C112.28 30.7865 112.458 30.7521 112.601 30.6831C112.744 30.6141 112.864 30.5345 112.959 30.4443C113.055 30.3539 113.129 30.2771 113.182 30.2133C113.278 30.0965 113.355 30.0249 113.413 29.9983C113.472 29.9717 113.564 29.9585 113.692 29.9585H115.666C115.773 29.9585 115.86 29.9903 115.929 30.0541C115.998 30.1177 116.027 30.2027 116.017 30.3089C116.006 30.4893 115.916 30.7069 115.746 30.9617C115.576 31.2165 115.329 31.4687 115.006 31.7181C114.682 31.9677 114.276 32.1721 113.787 32.3312C113.299 32.4904 112.731 32.5701 112.083 32.5701H112.083ZM110.73 27.4264H113.421V27.3946C113.421 27.0442 113.371 26.7442 113.27 26.4948C113.169 26.2454 113.015 26.0516 112.808 25.9136C112.601 25.7756 112.354 25.7066 112.068 25.7066C111.792 25.7066 111.553 25.7756 111.351 25.9136C111.149 26.0516 110.995 26.2454 110.889 26.4948C110.783 26.7442 110.73 27.0442 110.73 27.3946V27.4264ZM120.81 32.5701C120.301 32.5701 119.841 32.4879 119.433 32.3233C119.024 32.1587 118.674 31.9145 118.382 31.5907C118.09 31.2669 117.864 30.8741 117.705 30.4123C117.546 29.9505 117.455 29.4223 117.434 28.8279C117.423 28.6154 117.418 28.4271 117.418 28.2625C117.418 28.0979 117.423 27.9095 117.434 27.6973C117.455 27.1345 117.546 26.6223 117.705 26.1605C117.864 25.6987 118.087 25.3059 118.374 24.982C118.66 24.6582 119.011 24.4086 119.425 24.2336C119.839 24.0584 120.301 23.9708 120.81 23.9708C121.341 23.9708 121.797 24.0584 122.18 24.2336C122.562 24.4086 122.886 24.6342 123.151 24.9104V21.5024C123.151 21.3856 123.188 21.2902 123.263 21.2158C123.337 21.1414 123.432 21.1044 123.549 21.1044H125.492C125.598 21.1044 125.691 21.1414 125.771 21.2158C125.85 21.2902 125.89 21.3856 125.89 21.5024V32.0127C125.89 32.1189 125.85 32.2119 125.771 32.2915C125.691 32.3711 125.598 32.4109 125.492 32.4109H123.692C123.576 32.4109 123.48 32.3711 123.406 32.2915C123.332 32.2119 123.294 32.1189 123.294 32.0127V31.5031C123.04 31.8111 122.71 32.0659 122.307 32.2675C121.904 32.4693 121.405 32.5701 120.81 32.5701ZM121.686 30.4363C122.036 30.4363 122.315 30.3593 122.522 30.2053C122.729 30.0514 122.883 29.8522 122.984 29.6081C123.085 29.3639 123.14 29.0984 123.151 28.8118C123.162 28.5996 123.167 28.3979 123.167 28.2068C123.167 28.0156 123.162 27.8193 123.151 27.6174C123.14 27.352 123.082 27.1052 122.976 26.877C122.87 26.6488 122.71 26.4631 122.498 26.3197C122.286 26.1765 122.015 26.1047 121.686 26.1047C121.336 26.1047 121.057 26.1791 120.85 26.3277C120.643 26.4763 120.494 26.6781 120.404 26.9329C120.314 27.1877 120.258 27.4689 120.237 27.7769C120.205 28.1059 120.205 28.4351 120.237 28.7641C120.258 29.0721 120.314 29.3533 120.404 29.6081C120.494 29.8629 120.643 30.0647 120.85 30.2133C121.057 30.3619 121.336 30.4363 121.686 30.4363H121.686Z" fill="#333333"/>
<path fill-rule="evenodd" clip-rule="evenodd" d="M21.169 28.8457C21.52 27.9663 21.8516 27.1363 22.9244 26.2533C24.2724 25.1441 25.8742 25.0973 27.2876 25.7775C28.0292 26.1347 28.7172 26.6927 29.2852 27.4013C30.7692 29.2516 31.1512 31.3174 30.7724 33.2992C29.7428 38.6824 23.7456 43.39 17.6639 41.6214C16.1117 41.1702 14.9577 39.9896 14.5921 38.1006C13.6893 32.654 19.1467 33.911 21.1689 28.8458L21.169 28.8457Z" fill="#ADD3A3"/>
</g>
<defs>
<linearGradient id="paint0_linear_411_155" x1="35.678" y1="0" x2="35.678" y2="42" gradientUnits="userSpaceOnUse">
<stop stop-color="#91C78D"/>
<stop offset="1" stop-color="#32A13C"/>
</linearGradient>
<linearGradient id="paint1_linear_411_155" x1="20.7853" y1="21.6184" x2="13.5658" y2="12.7876" gradientUnits="userSpaceOnUse">
<stop stop-color="#32A13C"/>
<stop offset="1" stop-color="#91C78D"/>
</linearGradient>
<linearGradient id="paint2_linear_411_155" x1="10.1866" y1="8.17004" x2="4.4394" y2="1.1402" gradientUnits="userSpaceOnUse">
<stop stop-color="#32A13C"/>
<stop offset="1" stop-color="#91C78D"/>
</linearGradient>
<linearGradient id="paint3_linear_411_155" x1="4.74567" y1="24.6533" x2="1.15147" y2="20.2569" gradientUnits="userSpaceOnUse">
<stop stop-color="#32A13C"/>
<stop offset="1" stop-color="#91C78D"/>
</linearGradient>
<clipPath id="clip0_411_155">
<rect width="125.89" height="42" fill="white"/>
</clipPath>
</defs>
</svg>
